<svg width="30" height="30" viewBox="0 0 30 30" fill="none" xmlns="http://www.w3.org/2000/svg">
<g clip-path="url(#clip0_794_3818)">
<path d="M15.3973 0.308594C12.7153 0.311657 10.144 1.37845 8.24752 3.27487C6.35105 5.17134 5.28428 7.74258 5.28125 10.4247C5.28125 13.0307 6.26938 16.2129 8.13866 19.6278L8.13887 19.6276C10.0171 22.9834 12.3337 26.0741 15.0278 28.8187C15.1252 28.9182 15.2586 28.9742 15.3976 28.9742C15.5367 28.9742 15.6701 28.9182 15.7675 28.8187C18.4614 26.0742 20.7779 22.9834 22.6564 19.6276C24.5257 16.2128 25.5138 13.0315 25.5138 10.4245L25.514 10.4247C25.511 7.74248 24.4442 5.17134 22.5478 3.27487C20.6511 1.3784 18.0798 0.311627 15.398 0.308594L15.3973 0.308594ZM15.3973 15.4673C14.0599 15.4673 12.7772 14.936 11.8316 13.9904C10.8859 13.0447 10.3545 11.762 10.3545 10.4246C10.3545 9.08721 10.8859 7.80454 11.8316 6.85866C12.7772 5.91299 14.0599 5.38174 15.3973 5.38174C16.7347 5.38174 18.0174 5.91299 18.9631 6.85866C19.9088 7.80454 20.4402 9.08721 20.4402 10.4246C20.4386 11.7614 19.9067 13.0433 18.9615 13.9885C18.016 14.934 16.7343 15.4659 15.3973 15.4673Z" fill="#EE256D"/>
<circle cx="15.5" cy="10.5" r="5.5" fill="#D9D9D9"/>
<path d="M12.468 14V13.388L15.96 9.968C16.28 9.656 16.52 9.384 16.68 9.152C16.84 8.912 16.948 8.688 17.004 8.48C17.06 8.272 17.088 8.076 17.088 7.892C17.088 7.404 16.92 7.02 16.584 6.74C16.256 6.46 15.768 6.32 15.12 6.32C14.624 6.32 14.184 6.396 13.8 6.548C13.424 6.7 13.1 6.936 12.828 7.256L12.216 6.728C12.544 6.344 12.964 6.048 13.476 5.84C13.988 5.632 14.56 5.528 15.192 5.528C15.76 5.528 16.252 5.62 16.668 5.804C17.084 5.98 17.404 6.24 17.628 6.584C17.86 6.928 17.976 7.332 17.976 7.796C17.976 8.068 17.936 8.336 17.856 8.6C17.784 8.864 17.648 9.144 17.448 9.44C17.256 9.728 16.972 10.056 16.596 10.424L13.392 13.568L13.152 13.232H18.36V14H12.468Z" fill="black"/>
</g>
<defs>
<clipPath id="clip0_794_3818">
<rect width="30" height="29.3333" fill="white"/>
</clipPath>
</defs>
</svg>
