<svg width="30" height="30" viewBox="0 0 30 30" fill="none" xmlns="http://www.w3.org/2000/svg">
<g clip-path="url(#clip0_794_3890)">
<path d="M15.3973 0.308594C12.7153 0.311657 10.144 1.37845 8.24752 3.27487C6.35105 5.17134 5.28428 7.74258 5.28125 10.4247C5.28125 13.0307 6.26938 16.2129 8.13866 19.6278L8.13887 19.6276C10.0171 22.9834 12.3337 26.0741 15.0278 28.8187C15.1252 28.9182 15.2586 28.9742 15.3976 28.9742C15.5367 28.9742 15.6701 28.9182 15.7675 28.8187C18.4614 26.0742 20.7779 22.9834 22.6564 19.6276C24.5257 16.2128 25.5138 13.0315 25.5138 10.4245L25.514 10.4247C25.511 7.74248 24.4442 5.17134 22.5478 3.27487C20.6511 1.3784 18.0798 0.311627 15.398 0.308594L15.3973 0.308594ZM15.3973 15.4673C14.0599 15.4673 12.7772 14.936 11.8316 13.9904C10.8859 13.0447 10.3545 11.762 10.3545 10.4246C10.3545 9.08721 10.8859 7.80454 11.8316 6.85866C12.7772 5.91299 14.0599 5.38174 15.3973 5.38174C16.7347 5.38174 18.0174 5.91299 18.9631 6.85866C19.9088 7.80454 20.4402 9.08721 20.4402 10.4246C20.4386 11.7614 19.9067 13.0433 18.9615 13.9885C18.016 14.934 16.7343 15.4659 15.3973 15.4673Z" fill="#EE256D"/>
<circle cx="15.5" cy="10.5" r="5.5" fill="#D9D9D9"/>
<path d="M15.132 15.072C14.524 15.072 13.948 14.976 13.404 14.784C12.868 14.584 12.436 14.32 12.108 13.992L12.528 13.308C12.8 13.588 13.164 13.82 13.62 14.004C14.084 14.188 14.588 14.28 15.132 14.28C15.828 14.28 16.36 14.128 16.728 13.824C17.104 13.52 17.292 13.112 17.292 12.6C17.292 12.088 17.108 11.68 16.74 11.376C16.38 11.072 15.808 10.92 15.024 10.92H14.424V10.284L17.016 7.032L17.136 7.368H12.456V6.6H17.856V7.212L15.264 10.464L14.844 10.188H15.168C16.176 10.188 16.928 10.412 17.424 10.86C17.928 11.308 18.18 11.884 18.18 12.588C18.18 13.06 18.068 13.484 17.844 13.86C17.62 14.236 17.28 14.532 16.824 14.748C16.376 14.964 15.812 15.072 15.132 15.072Z" fill="black"/>
</g>
<defs>
<clipPath id="clip0_794_3890">
<rect width="30" height="29.3333" fill="white"/>
</clipPath>
</defs>
</svg>
