<svg width="30" height="30" viewBox="0 0 30 30" fill="none" xmlns="http://www.w3.org/2000/svg">
<g clip-path="url(#clip0_794_4034)">
<path d="M15.3973 0.308594C12.7153 0.311657 10.144 1.37845 8.24752 3.27487C6.35105 5.17134 5.28428 7.74258 5.28125 10.4247C5.28125 13.0307 6.26938 16.2129 8.13866 19.6278L8.13887 19.6276C10.0171 22.9834 12.3337 26.0741 15.0278 28.8187C15.1252 28.9182 15.2586 28.9742 15.3976 28.9742C15.5367 28.9742 15.6701 28.9182 15.7675 28.8187C18.4614 26.0742 20.7779 22.9834 22.6564 19.6276C24.5257 16.2128 25.5138 13.0315 25.5138 10.4245L25.514 10.4247C25.511 7.74248 24.4442 5.17134 22.5478 3.27487C20.6511 1.3784 18.0798 0.311627 15.398 0.308594L15.3973 0.308594ZM15.3973 15.4673C14.0599 15.4673 12.7772 14.936 11.8316 13.9904C10.8859 13.0447 10.3545 11.762 10.3545 10.4246C10.3545 9.08721 10.8859 7.80454 11.8316 6.85866C12.7772 5.91299 14.0599 5.38174 15.3973 5.38174C16.7347 5.38174 18.0174 5.91299 18.9631 6.85866C19.9088 7.80454 20.4402 9.08721 20.4402 10.4246C20.4386 11.7614 19.9067 13.0433 18.9615 13.9885C18.016 14.934 16.7343 15.4659 15.3973 15.4673Z" fill="#EE256D"/>
<circle cx="15.5" cy="10.5" r="5.5" fill="#D9D9D9"/>
<path d="M15.276 15.072C14.676 15.072 14.104 14.976 13.56 14.784C13.016 14.584 12.584 14.32 12.264 13.992L12.684 13.308C12.948 13.588 13.308 13.82 13.764 14.004C14.228 14.188 14.728 14.28 15.264 14.28C15.976 14.28 16.516 14.124 16.884 13.812C17.26 13.492 17.448 13.076 17.448 12.564C17.448 12.204 17.36 11.896 17.184 11.64C17.016 11.376 16.728 11.172 16.32 11.028C15.912 10.884 15.352 10.812 14.64 10.812H12.852L13.284 6.6H17.88V7.368H13.632L14.076 6.948L13.704 10.476L13.26 10.044H14.832C15.68 10.044 16.36 10.148 16.872 10.356C17.384 10.564 17.752 10.856 17.976 11.232C18.208 11.6 18.324 12.032 18.324 12.528C18.324 13 18.212 13.432 17.988 13.824C17.764 14.208 17.428 14.512 16.98 14.736C16.532 14.96 15.964 15.072 15.276 15.072Z" fill="black"/>
</g>
<defs>
<clipPath id="clip0_794_4034">
<rect width="30" height="29.3333" fill="white"/>
</clipPath>
</defs>
</svg>
